<svg width="48" height="48" viewBox="0 0 48 48" fill="none" xmlns="http://www.w3.org/2000/svg">
<circle cx="24" cy="24" r="24" fill="#67734D"/>
<path d="M24.0007 21.1667L26.834 26.8333V31.0833C26.834 31.4591 26.9832 31.8194 27.2489 32.0851C27.5146 32.3507 27.8749 32.5 28.2507 32.5H31.084C31.4597 32.5 31.82 32.3507 32.0857 32.0851C32.3514 31.8194 32.5007 31.4591 32.5007 31.0833V26.8333C32.5007 23.8275 31.3066 20.9449 29.1812 18.8195C27.0558 16.694 24.1731 15.5 21.1673 15.5C18.1615 15.5 15.2789 16.694 13.1534 18.8195C11.028 20.9449 9.83398 23.8275 9.83398 26.8333V31.0833C9.83398 31.4591 9.98324 31.8194 10.2489 32.0851C10.5146 32.3507 10.8749 32.5 11.2507 32.5H14.084C14.4597 32.5 14.82 32.3507 15.0857 32.0851C15.3514 31.8194 15.5007 31.4591 15.5007 31.0833V26.8333L18.334 21.1667H24.0007Z" stroke="white" stroke-width="2" stroke-linecap="round" stroke-linejoin="round"/>
<path d="M13.8281 18.1919L18.3331 21.1669" stroke="white" stroke-width="2" stroke-linecap="round" stroke-linejoin="round"/>
<path d="M28.505 18.1919L24 21.1669" stroke="white" stroke-width="2" stroke-linecap="round" stroke-linejoin="round"/>
<path d="M30.9848 21.1665H35.334C36.0854 21.1665 36.8061 21.465 37.3375 21.9964C37.8688 22.5277 38.1673 23.2484 38.1673 23.9998C38.1673 24.7513 37.8688 25.472 37.3375 26.0033C36.8061 26.5347 36.0854 26.8332 35.334 26.8332H9.83398" stroke="white" stroke-width="2" stroke-linecap="round" stroke-linejoin="round"/>
</svg>
