<svg xmlns="http://www.w3.org/2000/svg" version="1.1" xmlnsXlink="http://www.w3.org/1999/xlink" xmlnsSvgjs="http://svgjs.dev/svgjs" viewBox="0 0 800 800"><g fill="#4478ff" transform="matrix(0.9,0,0,0.9,39.099999999999966,39.89999999999998)"><circle r="1" cx="405" cy="400" opacity="0.83"></circle><circle r="1" cx="404" cy="405" opacity="0.13"></circle><circle r="1" cx="399" cy="407" opacity="0.31"></circle><circle r="1" cx="393" cy="404" opacity="0.64"></circle><circle r="1" cx="392" cy="397" opacity="0.24"></circle><circle r="1" cx="397" cy="391" opacity="0.37"></circle><circle r="1" cx="406" cy="391" opacity="0.81"></circle><circle r="1" cx="411" cy="399" opacity="0.47"></circle><circle r="1" cx="409" cy="408" opacity="0.37"></circle><circle r="1" cx="399" cy="413" opacity="0.85"></circle><circle r="1" cx="389" cy="408" opacity="0.98"></circle><circle r="1" cx="386" cy="396" opacity="0.95"></circle><circle r="1" cx="393" cy="386" opacity="0.53"></circle><circle r="1" cx="407" cy="385" opacity="0.20"></circle><circle r="1" cx="417" cy="396" opacity="0.24"></circle><circle r="1" cx="415" cy="411" opacity="0.67"></circle><circle r="1" cx="401" cy="419" opacity="0.90"></circle><circle r="1" cx="385" cy="414" opacity="0.87"></circle><circle r="1" cx="379" cy="397" opacity="0.14"></circle><circle r="1" cx="388" cy="382" opacity="0.98"></circle><circle r="1" cx="407" cy="379" opacity="0.74"></circle><circle r="1" cx="422" cy="392" opacity="0.40"></circle><circle r="1" cx="421" cy="412" opacity="0.83"></circle><circle r="1" cx="405" cy="425" opacity="0.13"></circle><circle r="1" cx="383" cy="420" opacity="0.84"></circle><circle r="1.5" cx="373" cy="400" opacity="0.98"></circle><circle r="1.5" cx="382" cy="378" opacity="0.59"></circle><circle r="1.5" cx="406" cy="372" opacity="0.75"></circle><circle r="1.5" cx="426" cy="386" opacity="0.44"></circle><circle r="1.5" cx="428" cy="412" opacity="0.91"></circle><circle r="1.5" cx="409" cy="430" opacity="0.78"></circle><circle r="1.5" cx="382" cy="427" opacity="0.71"></circle><circle r="1.5" cx="367" cy="404" opacity="0.39"></circle><circle r="1.5" cx="375" cy="376" opacity="0.38"></circle><circle r="1.5" cx="403" cy="365" opacity="0.76"></circle><circle r="1.5" cx="429" cy="379" opacity="0.31"></circle><circle r="1.5" cx="435" cy="410" opacity="0.31"></circle><circle r="1.5" cx="416" cy="434" opacity="0.39"></circle><circle r="1.5" cx="383" cy="435" opacity="0.11"></circle><circle r="1.5" cx="362" cy="409" opacity="0.83"></circle><circle r="1.5" cx="368" cy="376" opacity="0.37"></circle><circle r="1.5" cx="398" cy="359" opacity="0.72"></circle><circle r="1.5" cx="431" cy="372" opacity="0.76"></circle><circle r="1.5" cx="442" cy="406" opacity="0.75"></circle><circle r="1.5" cx="423" cy="437" opacity="0.60"></circle><circle r="1.5" cx="386" cy="442" opacity="0.66"></circle><circle r="1.5" cx="357" cy="416" opacity="0.68"></circle><circle r="1.5" cx="360" cy="377" opacity="0.75"></circle><circle r="1.5" cx="392" cy="353" opacity="0.61"></circle><circle r="1.5" cx="431" cy="363" opacity="0.71"></circle><circle r="1.5" cx="449" cy="401" opacity="0.67"></circle><circle r="1.5" cx="431" cy="439" opacity="0.26"></circle><circle r="1.5" cx="390" cy="450" opacity="0.36"></circle><circle r="1.5" cx="354" cy="424" opacity="0.39"></circle><circle r="1.5" cx="352" cy="380" opacity="0.15"></circle><circle r="1.5" cx="384" cy="349" opacity="0.84"></circle><circle r="1.5" cx="430" cy="355" opacity="0.92"></circle><circle r="1.5" cx="455" cy="394" opacity="0.40"></circle><circle r="1.5" cx="440" cy="439" opacity="0.31"></circle><circle r="1.5" cx="395" cy="457" opacity="0.39"></circle><circle r="1.5" cx="353" cy="433" opacity="0.94"></circle><circle r="1.5" cx="343" cy="384" opacity="0.78"></circle><circle r="1.5" cx="376" cy="346" opacity="0.69"></circle><circle r="1.5" cx="427" cy="346" opacity="0.49"></circle><circle r="1.5" cx="460" cy="386" opacity="0.74"></circle><circle r="1.5" cx="449" cy="438" opacity="0.67"></circle><circle r="1.5" cx="402" cy="463" opacity="0.94"></circle><circle r="1.5" cx="352" cy="443" opacity="0.39"></circle><circle r="1.5" cx="336" cy="390" opacity="0.82"></circle><circle r="1.5" cx="366" cy="344" opacity="0.49"></circle><circle r="1.5" cx="422" cy="337" opacity="0.36"></circle><circle r="1.5" cx="463" cy="377" opacity="0.52"></circle><circle r="1.5" cx="459" cy="434" opacity="0.13"></circle><circle r="2" cx="411" cy="468" opacity="0.38"></circle><circle r="2" cx="354" cy="453" opacity="0.12"></circle><circle r="2" cx="329" cy="398" opacity="0.66"></circle><circle r="2" cx="356" cy="343" opacity="0.38"></circle><circle r="2" cx="416" cy="329" opacity="0.34"></circle><circle r="2" cx="465" cy="366" opacity="0.59"></circle><circle r="2" cx="468" cy="429" opacity="0.36"></circle><circle r="2" cx="421" cy="472" opacity="0.63"></circle><circle r="2" cx="357" cy="463" opacity="0.78"></circle><circle r="2" cx="323" cy="407" opacity="0.33"></circle><circle r="2" cx="345" cy="345" opacity="0.37"></circle><circle r="2" cx="407" cy="321" opacity="0.12"></circle><circle r="2" cx="466" cy="355" opacity="0.51"></circle><circle r="2" cx="477" cy="422" opacity="0.56"></circle><circle r="2" cx="432" cy="475" opacity="0.79"></circle><circle r="2" cx="363" cy="473" opacity="0.90"></circle><circle r="2" cx="319" cy="418" opacity="0.21"></circle><circle r="2" cx="333" cy="348" opacity="0.12"></circle><circle r="2" cx="397" cy="315" opacity="0.30"></circle><circle r="2" cx="465" cy="343" opacity="0.13"></circle><circle r="2" cx="486" cy="414" opacity="0.38"></circle><circle r="2" cx="445" cy="476" opacity="0.60"></circle><circle r="2" cx="370" cy="483" opacity="0.36"></circle><circle r="2" cx="316" cy="430" opacity="0.60"></circle><circle r="2" cx="322" cy="354" opacity="0.91"></circle><circle r="2" cx="386" cy="310" opacity="0.36"></circle><circle r="2" cx="461" cy="331" opacity="0.68"></circle><circle r="2" cx="493" cy="403" opacity="0.82"></circle><circle r="2" cx="457" cy="474" opacity="0.63"></circle><circle r="2" cx="379" cy="492" opacity="0.71"></circle><circle r="2" cx="315" cy="443" opacity="0.71"></circle><circle r="2" cx="312" cy="361" opacity="0.49"></circle><circle r="2" cx="373" cy="306" opacity="0.63"></circle><circle r="2" cx="456" cy="319" opacity="0.38"></circle><circle r="2" cx="499" cy="391" opacity="0.36"></circle><circle r="2" cx="470" cy="471" opacity="0.92"></circle><circle r="2" cx="390" cy="500" opacity="0.41"></circle><circle r="2" cx="315" cy="457" opacity="0.19"></circle><circle r="2" cx="302" cy="371" opacity="0.79"></circle><circle r="2" cx="360" cy="305" opacity="0.66"></circle><circle r="2" cx="448" cy="307" opacity="0.65"></circle><circle r="2" cx="503" cy="378" opacity="0.56"></circle><circle r="2" cx="483" cy="466" opacity="0.65"></circle><circle r="2" cx="402" cy="507" opacity="0.66"></circle><circle r="2" cx="318" cy="471" opacity="0.10"></circle><circle r="2" cx="293" cy="382" opacity="0.20"></circle><circle r="2" cx="345" cy="305" opacity="0.43"></circle><circle r="2" cx="439" cy="296" opacity="0.75"></circle><circle r="2.5" cx="505" cy="363" opacity="0.68"></circle><circle r="2.5" cx="496" cy="458" opacity="0.43"></circle><circle r="2.5" cx="416" cy="512" opacity="0.93"></circle><circle r="2.5" cx="323" cy="485" opacity="0.91"></circle><circle r="2.5" cx="285" cy="395" opacity="0.81"></circle><circle r="2.5" cx="330" cy="308" opacity="0.58"></circle><circle r="2.5" cx="427" cy="286" opacity="0.65"></circle><circle r="2.5" cx="506" cy="348" opacity="0.12"></circle><circle r="2.5" cx="508" cy="449" opacity="0.13"></circle><circle r="2.5" cx="432" cy="515" opacity="0.60"></circle><circle r="2.5" cx="331" cy="498" opacity="0.27"></circle><circle r="2.5" cx="279" cy="410" opacity="0.58"></circle><circle r="2.5" cx="315" cy="312" opacity="0.86"></circle><circle r="2.5" cx="414" cy="278" opacity="0.92"></circle><circle r="2.5" cx="504" cy="332" opacity="0.38"></circle><circle r="2.5" cx="519" cy="437" opacity="0.66"></circle><circle r="2.5" cx="448" cy="516" opacity="0.80"></circle><circle r="2.5" cx="341" cy="512" opacity="0.68"></circle><circle r="2.5" cx="275" cy="426" opacity="0.44"></circle><circle r="2.5" cx="300" cy="320" opacity="0.27"></circle><circle r="2.5" cx="398" cy="271" opacity="0.58"></circle><circle r="2.5" cx="499" cy="316" opacity="0.78"></circle><circle r="2.5" cx="529" cy="423" opacity="0.77"></circle><circle r="2.5" cx="465" cy="515" opacity="0.89"></circle><circle r="2.5" cx="353" cy="524" opacity="0.58"></circle><circle r="2.5" cx="274" cy="443" opacity="0.63"></circle><circle r="2.5" cx="286" cy="329" opacity="0.62"></circle><circle r="2.5" cx="382" cy="266" opacity="0.56"></circle><circle r="2.5" cx="492" cy="300" opacity="0.70"></circle><circle r="2.5" cx="537" cy="407" opacity="0.31"></circle><circle r="2.5" cx="482" cy="511" opacity="0.31"></circle><circle r="2.5" cx="367" cy="535" opacity="0.46"></circle><circle r="2.5" cx="274" cy="461" opacity="0.87"></circle><circle r="2.5" cx="272" cy="341" opacity="0.75"></circle><circle r="2.5" cx="364" cy="263" opacity="0.32"></circle><circle r="2.5" cx="483" cy="284" opacity="0.53"></circle><circle r="2.5" cx="543" cy="390" opacity="0.60"></circle><circle r="2.5" cx="499" cy="504" opacity="0.75"></circle><circle r="2.5" cx="383" cy="544" opacity="0.58"></circle><circle r="2.5" cx="277" cy="479" opacity="0.95"></circle><circle r="2.5" cx="260" cy="355" opacity="0.45"></circle><circle r="2.5" cx="345" cy="263" opacity="0.87"></circle><circle r="2.5" cx="471" cy="270" opacity="0.66"></circle><circle r="2.5" cx="547" cy="371" opacity="0.75"></circle><circle r="2.5" cx="516" cy="495" opacity="0.84"></circle><circle r="2.5" cx="401" cy="551" opacity="0.54"></circle><circle r="2.5" cx="283" cy="497" opacity="0.49"></circle><circle r="2.5" cx="250" cy="372" opacity="0.43"></circle><circle r="3" cx="326" cy="266" opacity="0.31"></circle><circle r="3" cx="457" cy="256" opacity="0.82"></circle><circle r="3" cx="548" cy="352" opacity="0.55"></circle><circle r="3" cx="532" cy="484" opacity="0.72"></circle><circle r="3" cx="420" cy="556" opacity="0.80"></circle><circle r="3" cx="292" cy="515" opacity="0.32"></circle><circle r="3" cx="241" cy="390" opacity="0.39"></circle><circle r="3" cx="306" cy="271" opacity="0.40"></circle><circle r="3" cx="440" cy="244" opacity="0.22"></circle><circle r="3" cx="546" cy="331" opacity="0.54"></circle><circle r="3" cx="547" cy="469" opacity="0.61"></circle><circle r="3" cx="440" cy="558" opacity="0.45"></circle><circle r="3" cx="303" cy="533" opacity="0.48"></circle><circle r="3" cx="235" cy="410" opacity="0.23"></circle><circle r="3" cx="287" cy="279" opacity="0.60"></circle><circle r="3" cx="421" cy="234" opacity="0.52"></circle><circle r="3" cx="542" cy="310" opacity="0.12"></circle><circle r="3" cx="560" cy="453" opacity="0.68"></circle><circle r="3" cx="462" cy="558" opacity="0.97"></circle><circle r="3" cx="317" cy="549" opacity="0.58"></circle><circle r="3" cx="232" cy="431" opacity="0.14"></circle><circle r="3" cx="268" cy="290" opacity="0.81"></circle><circle r="3" cx="401" cy="227" opacity="0.93"></circle><circle r="3" cx="535" cy="290" opacity="0.85"></circle><circle r="3" cx="572" cy="434" opacity="0.88"></circle><circle r="3" cx="484" cy="554" opacity="0.32"></circle><circle r="3" cx="334" cy="564" opacity="0.43"></circle><circle r="3" cx="231" cy="454" opacity="0.66"></circle><circle r="3" cx="250" cy="303" opacity="0.41"></circle><circle r="3" cx="379" cy="222" opacity="0.97"></circle><circle r="3" cx="524" cy="270" opacity="0.77"></circle><circle r="3" cx="581" cy="413" opacity="0.51"></circle><circle r="3" cx="506" cy="548" opacity="0.25"></circle><circle r="3" cx="353" cy="577" opacity="0.35"></circle><circle r="3" cx="233" cy="477" opacity="0.30"></circle><circle r="3" cx="234" cy="320" opacity="0.63"></circle><circle r="3" cx="356" cy="220" opacity="0.99"></circle><circle r="3" cx="511" cy="250" opacity="0.60"></circle><circle r="3" cx="587" cy="390" opacity="0.40"></circle><circle r="3" cx="527" cy="538" opacity="0.23"></circle><circle r="3" cx="374" cy="587" opacity="0.12"></circle><circle r="3" cx="239" cy="500" opacity="0.76"></circle><circle r="3" cx="219" cy="339" opacity="0.56"></circle><circle r="3" cx="332" cy="221" opacity="0.17"></circle><circle r="3" cx="495" cy="233" opacity="0.97"></circle><circle r="3" cx="590" cy="366" opacity="0.67"></circle><circle r="3" cx="548" cy="526" opacity="0.31"></circle><circle r="3" cx="397" cy="595" opacity="0.47"></circle><circle r="3.5" cx="247" cy="523" opacity="0.64"></circle><circle r="3.5" cx="207" cy="360" opacity="0.49"></circle><circle r="3.5" cx="307" cy="225" opacity="0.81"></circle><circle r="3.5" cx="476" cy="216" opacity="0.86"></circle><circle r="3.5" cx="591" cy="341" opacity="0.96"></circle><circle r="3.5" cx="567" cy="510" opacity="0.72"></circle><circle r="3.5" cx="422" cy="600" opacity="0.73"></circle><circle r="3.5" cx="259" cy="545" opacity="0.26"></circle><circle r="3.5" cx="198" cy="384" opacity="0.47"></circle><circle r="3.5" cx="283" cy="233" opacity="0.73"></circle><circle r="3.5" cx="454" cy="203" opacity="0.86"></circle><circle r="3.5" cx="588" cy="316" opacity="0.63"></circle><circle r="3.5" cx="585" cy="491" opacity="0.64"></circle><circle r="3.5" cx="448" cy="602" opacity="0.73"></circle><circle r="3.5" cx="274" cy="566" opacity="0.76"></circle><circle r="3.5" cx="191" cy="409" opacity="0.96"></circle><circle r="3.5" cx="259" cy="244" opacity="0.74"></circle><circle r="3.5" cx="431" cy="191" opacity="0.48"></circle><circle r="3.5" cx="581" cy="290" opacity="0.54"></circle><circle r="3.5" cx="601" cy="470" opacity="0.89"></circle><circle r="3.5" cx="474" cy="600" opacity="0.31"></circle><circle r="3.5" cx="293" cy="586" opacity="0.74"></circle><circle r="3.5" cx="188" cy="436" opacity="0.31"></circle><circle r="3.5" cx="237" cy="259" opacity="0.23"></circle><circle r="3.5" cx="405" cy="183" opacity="0.32"></circle><circle r="3.5" cx="571" cy="265" opacity="0.15"></circle><circle r="3.5" cx="614" cy="446" opacity="0.61"></circle><circle r="3.5" cx="501" cy="595" opacity="0.44"></circle><circle r="3.5" cx="314" cy="603" opacity="0.21"></circle><circle r="3.5" cx="188" cy="463" opacity="0.97"></circle><circle r="3.5" cx="215" cy="276" opacity="0.27"></circle><circle r="3.5" cx="378" cy="178" opacity="0.31"></circle><circle r="3.5" cx="558" cy="241" opacity="0.59"></circle><circle r="3.5" cx="624" cy="420" opacity="0.34"></circle><circle r="3.5" cx="528" cy="586" opacity="0.31"></circle><circle r="3.5" cx="338" cy="618" opacity="0.69"></circle><circle r="3.5" cx="192" cy="491" opacity="0.40"></circle><circle r="3.5" cx="196" cy="297" opacity="0.42"></circle><circle r="3.5" cx="349" cy="176" opacity="0.85"></circle><circle r="3.5" cx="540" cy="218" opacity="0.60"></circle><circle r="3.5" cx="631" cy="392" opacity="0.18"></circle><circle r="3.5" cx="554" cy="574" opacity="0.80"></circle><circle r="3.5" cx="364" cy="630" opacity="0.81"></circle><circle r="3.5" cx="199" cy="519" opacity="0.43"></circle><circle r="3.5" cx="179" cy="321" opacity="0.34"></circle><circle r="3.5" cx="320" cy="178" opacity="0.58"></circle><circle r="3.5" cx="520" cy="196" opacity="0.79"></circle><circle r="3.5" cx="634" cy="363" opacity="0.44"></circle><circle r="3.5" cx="579" cy="557" opacity="0.71"></circle><circle r="4" cx="393" cy="639" opacity="0.98"></circle><circle r="4" cx="210" cy="547" opacity="0.81"></circle><circle r="4" cx="165" cy="347" opacity="0.84"></circle><circle r="4" cx="290" cy="185" opacity="0.68"></circle><circle r="4" cx="497" cy="177" opacity="0.31"></circle><circle r="4" cx="634" cy="332" opacity="0.29"></circle><circle r="4" cx="602" cy="538" opacity="0.86"></circle><circle r="4" cx="422" cy="644" opacity="0.64"></circle><circle r="4" cx="225" cy="574" opacity="0.73"></circle><circle r="4" cx="154" cy="376" opacity="0.26"></circle><circle r="4" cx="261" cy="195" opacity="0.37"></circle><circle r="4" cx="470" cy="161" opacity="0.31"></circle><circle r="4" cx="630" cy="302" opacity="0.45"></circle><circle r="4" cx="623" cy="515" opacity="0.40"></circle><circle r="4" cx="454" cy="646" opacity="0.73"></circle><circle r="4" cx="244" cy="599" opacity="0.26"></circle><circle r="4" cx="147" cy="407" opacity="0.99"></circle><circle r="4" cx="233" cy="208" opacity="0.90"></circle><circle r="4" cx="441" cy="148" opacity="0.94"></circle><circle r="4" cx="621" cy="271" opacity="0.69"></circle><circle r="4" cx="641" cy="489" opacity="0.44"></circle><circle r="4" cx="485" cy="643" opacity="0.50"></circle><circle r="4" cx="267" cy="621" opacity="0.65"></circle><circle r="4" cx="144" cy="438" opacity="0.48"></circle><circle r="4" cx="206" cy="226" opacity="0.69"></circle><circle r="4" cx="410" cy="139" opacity="0.57"></circle><circle r="4" cx="608" cy="241" opacity="0.80"></circle><circle r="4" cx="656" cy="460" opacity="0.43"></circle><circle r="4" cx="517" cy="636" opacity="0.32"></circle><circle r="4" cx="292" cy="642" opacity="0.77"></circle><circle r="4" cx="144" cy="471" opacity="0.44"></circle><circle r="4" cx="181" cy="248" opacity="0.65"></circle><circle r="4" cx="378" cy="134" opacity="0.43"></circle><circle r="4" cx="592" cy="213" opacity="0.18"></circle><circle r="4" cx="667" cy="429" opacity="0.51"></circle><circle r="4" cx="549" cy="625" opacity="0.67"></circle><circle r="4" cx="321" cy="659" opacity="0.94"></circle><circle r="4" cx="149" cy="505" opacity="0.76"></circle><circle r="4" cx="159" cy="273" opacity="0.11"></circle><circle r="4" cx="344" cy="132" opacity="0.87"></circle><circle r="4" cx="571" cy="186" opacity="0.70"></circle><circle r="4" cx="675" cy="395" opacity="0.38"></circle><circle r="4" cx="579" cy="610" opacity="0.87"></circle><circle r="4" cx="353" cy="673" opacity="0.52"></circle><circle r="4" cx="159" cy="538" opacity="0.34"></circle><circle r="4" cx="139" cy="301" opacity="0.23"></circle><circle r="4" cx="310" cy="135" opacity="0.32"></circle><circle r="4" cx="547" cy="161" opacity="0.33"></circle><circle r="4.5" cx="679" cy="361" opacity="0.56"></circle><circle r="4.5" cx="608" cy="590" opacity="0.45"></circle><circle r="4.5" cx="386" cy="683" opacity="0.26"></circle><circle r="4.5" cx="173" cy="570" opacity="0.21"></circle><circle r="4.5" cx="123" cy="333" opacity="0.55"></circle><circle r="4.5" cx="275" cy="143" opacity="0.62"></circle><circle r="4.5" cx="519" cy="139" opacity="0.93"></circle><circle r="4.5" cx="678" cy="325" opacity="0.22"></circle><circle r="4.5" cx="635" cy="567" opacity="0.71"></circle><circle r="4.5" cx="421" cy="688" opacity="0.53"></circle><circle r="4.5" cx="191" cy="601" opacity="0.54"></circle><circle r="4.5" cx="111" cy="367" opacity="0.67"></circle><circle r="4.5" cx="241" cy="155" opacity="0.68"></circle><circle r="4.5" cx="488" cy="121" opacity="0.59"></circle><circle r="4.5" cx="672" cy="289" opacity="0.43"></circle><circle r="4.5" cx="659" cy="540" opacity="0.84"></circle><circle r="4.5" cx="458" cy="690" opacity="0.39"></circle><circle r="4.5" cx="213" cy="630" opacity="0.84"></circle><circle r="4.5" cx="103" cy="402" opacity="0.20"></circle><circle r="4.5" cx="208" cy="172" opacity="0.66"></circle><circle r="4.5" cx="454" cy="106" opacity="0.31"></circle><circle r="4.5" cx="662" cy="254" opacity="0.64"></circle><circle r="4.5" cx="680" cy="509" opacity="0.69"></circle><circle r="4.5" cx="495" cy="686" opacity="0.43"></circle><circle r="4.5" cx="239" cy="656" opacity="0.27"></circle><circle r="4.5" cx="99" cy="440" opacity="0.98"></circle><circle r="4.5" cx="177" cy="193" opacity="0.46"></circle><circle r="4.5" cx="418" cy="95" opacity="0.45"></circle><circle r="4.5" cx="647" cy="219" opacity="0.69"></circle><circle r="4.5" cx="698" cy="475" opacity="0.35"></circle><circle r="4.5" cx="532" cy="678" opacity="0.21"></circle><circle r="4.5" cx="270" cy="680" opacity="0.22"></circle><circle r="4.5" cx="100" cy="478" opacity="0.88"></circle><circle r="4.5" cx="148" cy="218" opacity="0.34"></circle><circle r="4.5" cx="380" cy="89" opacity="0.99"></circle><circle r="4.5" cx="627" cy="186" opacity="0.20"></circle><circle r="4.5" cx="711" cy="439" opacity="0.60"></circle><circle r="4.5" cx="569" cy="665" opacity="0.74"></circle><circle r="4.5" cx="303" cy="699" opacity="0.25"></circle><circle r="4.5" cx="107" cy="516" opacity="0.98"></circle><circle r="4.5" cx="123" cy="248" opacity="0.17"></circle><circle r="4.5" cx="341" cy="88" opacity="0.28"></circle><circle r="4.5" cx="603" cy="155" opacity="0.15"></circle><circle r="4.5" cx="719" cy="400" opacity="0.83"></circle><circle r="4.5" cx="604" cy="647" opacity="0.81"></circle><circle r="4.5" cx="339" cy="715" opacity="0.65"></circle><circle r="4.5" cx="118" cy="555" opacity="0.36"></circle><circle r="4.5" cx="100" cy="281" opacity="0.50"></circle><circle r="5" cx="301" cy="92" opacity="0.28"></circle><circle r="5" cx="575" cy="127" opacity="0.59"></circle><circle r="5" cx="723" cy="360" opacity="0.38"></circle><circle r="5" cx="637" cy="624" opacity="0.15"></circle><circle r="5" cx="378" cy="726" opacity="0.22"></circle><circle r="5" cx="134" cy="592" opacity="0.87"></circle><circle r="5" cx="82" cy="317" opacity="0.65"></circle><circle r="5" cx="261" cy="101" opacity="0.26"></circle><circle r="5" cx="542" cy="102" opacity="0.16"></circle><circle r="5" cx="722" cy="319" opacity="0.38"></circle><circle r="5" cx="668" cy="597" opacity="0.98"></circle><circle r="5" cx="419" cy="733" opacity="0.78"></circle><circle r="5" cx="155" cy="627" opacity="0.93"></circle><circle r="5" cx="68" cy="356" opacity="0.96"></circle><circle r="5" cx="222" cy="115" opacity="0.27"></circle><circle r="5" cx="507" cy="81" opacity="0.45"></circle><circle r="5" cx="715" cy="278" opacity="0.33"></circle><circle r="5" cx="695" cy="566" opacity="0.52"></circle><circle r="5" cx="461" cy="734" opacity="0.64"></circle><circle r="5" cx="181" cy="660" opacity="0.13"></circle><circle r="5" cx="59" cy="397" opacity="0.82"></circle><circle r="5" cx="185" cy="134" opacity="0.78"></circle><circle r="5" cx="468" cy="64" opacity="0.46"></circle><circle r="5" cx="703" cy="238" opacity="0.89"></circle></g></svg>